<?xml version="1.0" encoding="UTF-8" standalone="no"?>
<svg
   xmlns:dc="http://purl.org/dc/elements/1.1/"
   xmlns:cc="http://creativecommons.org/ns#"
   xmlns:rdf="http://www.w3.org/1999/02/22-rdf-syntax-ns#"
   xmlns:svg="http://www.w3.org/2000/svg"
   xmlns="http://www.w3.org/2000/svg"
   xmlns:sodipodi="http://sodipodi.sourceforge.net/DTD/sodipodi-0.dtd"
   xmlns:inkscape="http://www.inkscape.org/namespaces/inkscape"
   inkscape:version="1.0 (4035a4f, 2020-05-01)"
   sodipodi:docname="logo.svg"
   id="svg860"
   version="1.1"
   fill="none"
   viewBox="0 0 190 40"
   height="40"
   width="190">
  <metadata
     id="metadata864">
    <rdf:RDF>
      <cc:Work
         rdf:about="">
        <dc:format>image/svg+xml</dc:format>
        <dc:type
           rdf:resource="http://purl.org/dc/dcmitype/StillImage" />
        <dc:title></dc:title>
      </cc:Work>
    </rdf:RDF>
  </metadata>
  <sodipodi:namedview
     inkscape:current-layer="svg860"
     inkscape:window-maximized="0"
     inkscape:window-y="23"
     inkscape:window-x="0"
     inkscape:cy="29.004732"
     inkscape:cx="122.51893"
     inkscape:zoom="3.6647399"
     showgrid="false"
     id="namedview862"
     inkscape:window-height="712"
     inkscape:window-width="1246"
     inkscape:pageshadow="2"
     inkscape:pageopacity="0"
     guidetolerance="10"
     gridtolerance="10"
     objecttolerance="10"
     borderopacity="1"
     bordercolor="#666666"
     pagecolor="#ffffff" />
  <path
     id="path847"
     fill="#33cc95"
     d="M 34.1422,5.85781 C 30.3647,2.08031 25.3422,0 20,0 14.6578,0 9.63531,2.08031 5.85781,5.85781 2.08031,9.63531 0,14.6578 0,20 0,25.3422 2.08039,30.3646 5.85781,34.1422 9.63523,37.9198 14.6578,40 20,40 25.3422,40 30.3647,37.9197 34.1422,34.1422 37.9197,30.3647 40,25.3422 40,20 40,14.6578 37.9196,9.63539 34.1422,5.85781 Z" />
  <g
     id="g853"
     clip-path="url(#clip0)">
    <path
       id="path849"
       stroke-linejoin="round"
       stroke-linecap="round"
       stroke-width="2"
       stroke="#ffffff"
       d="M 20.5714,8 V 33.1429" />
    <path
       id="path851"
       stroke-linejoin="round"
       stroke-linecap="round"
       stroke-width="2"
       stroke="#ffffff"
       d="m 26.2857,12.5714 h -8.5714 c -1.0609,0 -2.0783,0.4215 -2.8284,1.1716 -0.7502,0.7501 -1.1716,1.7676 -1.1716,2.8284 0,1.0609 0.4214,2.0783 1.1716,2.8285 0.7501,0.7501 1.7675,1.1715 2.8284,1.1715 h 5.7143 c 1.0608,0 2.0783,0.4215 2.8284,1.1716 0.7502,0.7502 1.1716,1.7676 1.1716,2.8284 0,1.0609 -0.4214,2.0783 -1.1716,2.8285 -0.7501,0.7501 -1.7676,1.1715 -2.8284,1.1715 h -9.7143" />
  </g>
  <defs
     id="defs858">
    <clipPath
       id="clip0">
      <rect
         y="0"
         x="0"
         id="rect855"
         transform="translate(6.85715,6.85714)"
         fill="#ffffff"
         height="27.4286"
         width="27.4286" />
    </clipPath>
  </defs>
  <text
     id="text868"
     y="27.997839"
     x="55.75058"
     style="font-style:normal;font-weight:normal;font-size:16px;line-height:1.25;font-family:sans-serif;fill:#ffffff;fill-opacity:1;stroke:none;"
     xml:space="preserve"><tspan
       style="font-style:normal;font-variant:normal;font-weight:normal;font-stretch:normal;font-size:16px;font-family:Cocogoose;-inkscape-font-specification:Cocogoose;fill:#ffffff;fill-opacity:1;"
       y="27.997839"
       x="55.75058"
       id="tspan866"
       sodipodi:role="line">money control</tspan></text>
</svg>
